<svg width="21" height="21" viewBox="0 0 21 21" fill="none" xmlns="http://www.w3.org/2000/svg">
<path d="M14.7624 14.4021H13.0334V11.691C13.0334 11.0452 13.02 10.2137 12.1319 10.2137C11.2303 10.2137 11.0925 10.9144 11.0925 11.6437V14.4009H9.36295V8.82984H11.0242V9.58893H11.047C11.2133 9.30464 11.4537 9.07078 11.7424 8.91223C12.0311 8.75368 12.3574 8.67637 12.6866 8.68854C14.4383 8.68854 14.763 9.84176 14.763 11.343V14.4015L14.7624 14.4021ZM7.40977 8.06726C7.21118 8.06714 7.01708 8.00815 6.85201 7.89775C6.68694 7.78735 6.5583 7.63049 6.48236 7.447C6.40642 7.2635 6.38658 7.06162 6.42535 6.86685C6.46412 6.67208 6.55976 6.49318 6.70018 6.35276C6.84061 6.21234 7.01951 6.1167 7.21427 6.07793C7.40904 6.03915 7.61093 6.05899 7.79442 6.13494C7.97791 6.21088 8.13477 6.33952 8.24518 6.50459C8.35558 6.66966 8.41456 6.86376 8.41468 7.06234C8.41483 7.19435 8.38894 7.3251 8.3385 7.44709C8.28805 7.56908 8.21403 7.67992 8.12069 7.77327C8.02734 7.86661 7.9165 7.94063 7.79451 7.99107C7.67252 8.04152 7.54178 8.06741 7.40977 8.06726ZM8.27688 14.4021H6.54324V8.82984H8.27688V14.4021ZM15.6277 4.45051H5.67496C5.56311 4.44912 5.45209 4.46978 5.34823 4.51133C5.24437 4.55287 5.14971 4.61447 5.06967 4.69261C4.98963 4.77076 4.92578 4.8639 4.88175 4.96674C4.83773 5.06957 4.81441 5.18007 4.81311 5.29192V15.2873C4.81441 15.3992 4.83773 15.5097 4.88175 15.6125C4.92578 15.7153 4.98963 15.8085 5.06967 15.8866C5.14971 15.9648 5.24437 16.0264 5.34823 16.0679C5.45209 16.1095 5.56311 16.1301 5.67496 16.1287H15.626C15.8523 16.1317 16.0705 16.0448 16.2327 15.887C16.3949 15.7293 16.488 15.5136 16.4913 15.2873V5.29192C16.4878 5.06571 16.3947 4.85012 16.2325 4.6924C16.0703 4.53468 15.8522 4.4477 15.626 4.45051H15.6277Z" fill="#0A0C14"/>
</svg>
